<svg width="33" height="32" viewBox="0 0 33 32" fill="none" xmlns="http://www.w3.org/2000/svg">
<path d="M23.3519 0H8.83994C3.95623 0 0 3.90072 0 8.7159V22.785C0 27.5965 3.95623 31.5009 8.83994 31.5009H23.3519C28.2356 31.5009 32.1955 27.5965 32.1955 22.785V8.7159C32.1955 3.90072 28.2356 0 23.3519 0ZM28.9795 21.1941C28.9795 25.1494 25.7303 28.3567 21.715 28.3567H10.4769C6.46522 28.3567 3.21229 25.1494 3.21229 21.1941V10.3056C3.21229 6.3502 6.46522 3.14292 10.4769 3.14292H21.715C25.7303 3.14292 28.9795 6.3502 28.9795 10.3056V21.1941Z" fill="white"/>
<path d="M21.1016 5.41022H11.094C8.01969 5.41022 5.52795 7.86698 5.52795 10.8982V20.6026C5.52795 23.6338 8.01969 26.0906 11.094 26.0906H21.1004C24.1723 26.0906 26.6628 23.6338 26.6628 20.6026V10.8982C26.6628 7.86698 24.171 5.41022 21.1004 5.41022H21.1016ZM16.2204 22.0842C12.6681 22.0842 9.79335 19.2485 9.79335 15.7474C9.79335 12.2462 12.6694 9.41051 16.2204 9.41051C19.7714 9.41051 22.6511 12.2462 22.6511 15.7474C22.6511 19.2485 19.7714 22.0842 16.2204 22.0842ZM22.4319 9.64368C21.9343 9.64368 21.5253 9.2405 21.5253 8.74744C21.5253 8.25439 21.9343 7.85363 22.4319 7.85363C22.9295 7.85363 23.3409 8.25682 23.3409 8.74744C23.3409 9.23807 22.9319 9.64368 22.4319 9.64368Z" fill="white"/>
<path d="M20.2849 15.7462C20.2849 17.9589 18.4657 19.7526 16.2215 19.7526C13.9774 19.7526 12.1581 17.9589 12.1581 15.7462C12.1581 13.5335 13.9774 11.7398 16.2215 11.7398C18.4657 11.7398 20.2849 13.5335 20.2849 15.7462Z" fill="white"/>
</svg>