<svg width="24" height="24" viewBox="0 0 24 24" fill="none" xmlns="http://www.w3.org/2000/svg">
<path d="M17.3634 0H6.573C2.94168 0 0 2.90621 0 6.49374V16.9758C0 20.5606 2.94168 23.4696 6.573 23.4696H17.3634C20.9948 23.4696 23.9392 20.5606 23.9392 16.9758V6.49374C23.9392 2.90621 20.9948 0 17.3634 0ZM21.5479 15.7905C21.5479 18.7375 19.1319 21.127 16.1463 21.127H7.79015C4.80725 21.127 2.38852 18.7375 2.38852 15.7905V7.67811C2.38852 4.73119 4.80725 2.34162 7.79015 2.34162H16.1463C19.1319 2.34162 21.5479 4.73119 21.5479 7.67811V15.7905Z" fill="#397D7E"/>
<path d="M13.2926 12.3903H15.8662L16.2701 9.80801H13.2926V8.39653C13.2926 7.32435 13.6443 6.37341 14.6627 6.37341H16.2957V4.12046C15.6189 4.02998 14.9366 3.98926 14.2534 3.99831C11.8594 3.99831 10.4581 5.24603 10.4581 8.09071V9.80801H8V12.3894H10.459V19.4857C10.9518 19.5635 11.4491 19.6052 11.9473 19.6097C12.3979 19.6061 12.8466 19.5726 13.2926 19.5093V12.3885V12.3903Z" fill="#397D7E"/>
</svg>