<svg width="33" height="32" viewBox="0 0 33 32" fill="none" xmlns="http://www.w3.org/2000/svg">
<path d="M23.3519 0H8.83994C3.95623 0 0 3.90072 0 8.7159V22.785C0 27.5965 3.95623 31.5009 8.83994 31.5009H23.3519C28.2356 31.5009 32.1955 27.5965 32.1955 22.785V8.7159C32.1955 3.90072 28.2356 0 23.3519 0ZM28.9795 21.1941C28.9795 25.1494 25.7303 28.3567 21.715 28.3567H10.4769C6.46522 28.3567 3.21229 25.1494 3.21229 21.1941V10.3056C3.21229 6.3502 6.46522 3.14292 10.4769 3.14292H21.715C25.7303 3.14292 28.9795 6.3502 28.9795 10.3056V21.1941Z" fill="white"/>
<path d="M16.4629 16.6303H19.924L20.4672 13.1643H16.4629V11.2698C16.4629 9.83075 16.9359 8.55439 18.3056 8.55439H20.5017V5.53048C19.5915 5.40904 18.6738 5.3544 17.755 5.36654C14.5353 5.36654 12.6508 7.04122 12.6508 10.8594V13.1643H9.34491V16.6291H12.652V26.1538C13.3147 26.2582 13.9835 26.3141 14.6536 26.3201C15.2596 26.3153 15.8631 26.2704 16.4629 26.1854V16.6279V16.6303Z" fill="white"/>
</svg>