<svg width="26" height="25" viewBox="0 0 26 25" fill="none" xmlns="http://www.w3.org/2000/svg">
<path d="M18.4617 0H6.98867C3.12807 0 0 3.08418 0 6.8906V18.0129C0 21.8166 3.12807 24.9035 6.98867 24.9035H18.4617C22.3223 24.9035 25.4531 21.8166 25.4531 18.0129V6.8906C25.4531 3.08418 22.3223 0 18.4617 0ZM22.9107 16.7554C22.9107 19.8827 20.3413 22.4178 17.1677 22.4178H8.28266C5.11089 22.4178 2.53964 19.8817 2.53964 16.7554V8.1481C2.53964 5.02084 5.11182 2.48567 8.28266 2.48567H17.1677C20.3423 2.48567 22.9107 5.02176 22.9107 8.1481V16.7554Z" fill="white"/>
<path d="M17.4112 9.59883C17.3229 9.48243 17.1565 9.4586 17.0385 9.54567L12.7391 12.7096C12.7075 12.7325 12.6638 12.7325 12.6322 12.7096L8.41744 9.53193C8.30031 9.44394 8.13298 9.46593 8.04374 9.58142C7.9545 9.6969 7.97681 9.86188 8.09394 9.94987L11.4079 12.4493L8.13019 14.8846C8.0112 14.9716 7.98704 15.1375 8.07535 15.2548C8.16366 15.3722 8.33191 15.396 8.4509 15.3089L11.8476 12.7811L12.3078 13.1312C12.5281 13.298 12.8339 13.2998 13.057 13.1367L13.5404 12.7811L16.9771 15.3089C17.0952 15.396 17.2625 15.3722 17.3499 15.2558C17.4382 15.1394 17.414 14.9744 17.296 14.8882L13.9857 12.4493L17.3573 9.96545C17.4735 9.87838 17.4977 9.71615 17.4112 9.59975V9.59883Z" fill="white"/>
<path d="M17.0794 8.4751H8.37283C7.63659 8.4751 7.03979 9.06352 7.03979 9.78943V15.0449C7.03979 15.7708 7.63659 16.3592 8.37283 16.3592H17.0794C17.8156 16.3592 18.4124 15.7708 18.4124 15.0449V9.78943C18.4124 9.06352 17.8156 8.4751 17.0794 8.4751ZM17.8788 15.0449C17.8788 15.4803 17.5209 15.8331 17.0794 15.8331H8.37283C7.93127 15.8331 7.57338 15.4803 7.57338 15.0449V9.78943C7.57338 9.35407 7.93127 9.00119 8.37283 9.00119H17.0794C17.5209 9.00119 17.8788 9.35407 17.8788 9.78943V15.0449Z" fill="white"/>
</svg>