<svg width="25" height="24" viewBox="0 0 25 24" fill="none" xmlns="http://www.w3.org/2000/svg">
<path d="M7.13926 8.12717C7.13926 8.12717 7.72119 7.12355 8.19621 7.06581C8.67123 7.00806 9.2829 7.00807 9.44744 7.31419C9.61197 7.62032 10.3501 9.39934 10.3501 9.39934C10.3501 9.39934 10.4756 9.70546 10.2822 10.0015C10.0889 10.2976 9.65195 10.7283 9.65195 10.7283C9.65195 10.7283 9.40932 11.0345 9.65195 11.3589C9.89457 11.6843 10.2701 12.2819 11.0491 13.0481C11.8263 13.8153 13.3183 14.3615 13.3183 14.3615C13.3183 14.3615 13.5321 14.3899 13.6669 14.2561C13.8026 14.1223 14.5397 13.214 14.5397 13.214C14.5397 13.214 14.7768 12.9125 15.17 13.0894C15.5623 13.2662 17.2644 14.1031 17.2644 14.1031C17.2644 14.1031 17.4633 14.1745 17.4633 14.4706C17.4633 14.7666 17.3415 15.4925 17.0924 15.7382C16.8433 15.9838 16.1163 16.739 15.0231 16.739C13.9299 16.739 11.3271 15.8619 9.94012 14.4953C8.55317 13.1269 7.32146 11.7402 7.0305 10.4781C6.73954 9.21603 6.77765 8.64502 7.13647 8.12533" fill="white"/>
<path d="M17.6278 0H6.67261C2.98678 0 0 2.94486 0 6.57897V17.199C0 20.8313 2.98678 23.778 6.67261 23.778H17.6278C21.3137 23.778 24.3032 20.8304 24.3032 17.199V6.57897C24.3032 2.94486 21.3137 0 17.6278 0ZM21.8761 15.9983C21.8761 18.9844 19.4229 21.405 16.3924 21.405H7.90896C4.88036 21.405 2.4253 18.9835 2.4253 15.9983V7.77965C2.4253 4.79354 4.88129 2.37294 7.90896 2.37294H16.3924C19.4229 2.37294 21.8761 4.79446 21.8761 7.77965V15.9983Z" fill="white"/>
</svg>