<svg width="55" height="55" viewBox="0 0 55 55" fill="none" xmlns="http://www.w3.org/2000/svg">
<circle cx="27.5" cy="27.5" r="27.5" fill="#497B7C" fill-opacity="0.1"/>
<path fill-rule="evenodd" clip-rule="evenodd" d="M27 22H16.5C15.5572 22 15.0858 22 14.7929 22.2929C14.5 22.5858 14.5 23.0572 14.5 24V27.5C14.5 28.4428 14.5 28.9142 14.7929 29.2071C15.0858 29.5 15.5572 29.5 16.5 29.5H19V30H27V22ZM19 32V39.5C19 40.4428 19 40.9142 19.2929 41.2071C19.5858 41.5 20.0572 41.5 21 41.5H27V32H19ZM29 41.5H35C35.9428 41.5 36.4142 41.5 36.7071 41.2071C37 40.9142 37 40.4428 37 39.5V32H29V41.5ZM37 30V29.5H39.5C40.4428 29.5 40.9142 29.5 41.2071 29.2071C41.5 28.9142 41.5 28.4428 41.5 27.5V24C41.5 23.0572 41.5 22.5858 41.2071 22.2929C40.9142 22 40.4428 22 39.5 22H29V30H37Z" fill="#497B7C"/>
<path d="M38.5 17.5585V15.7749C38.5 14.4097 37.1626 13.4458 35.8675 13.8775L34.2135 14.4288C32.5934 14.9689 31.1213 15.8787 29.9138 17.0862L28 19V20.5H33.6754C33.8904 20.5 34.104 20.4653 34.3079 20.3974L37.1325 19.4558C37.9491 19.1836 38.5 18.4193 38.5 17.5585Z" fill="#497B7C"/>
<path d="M17.5 17.5585V15.7749C17.5 14.4097 18.8374 13.4458 20.1325 13.8775L21.7865 14.4288C23.4066 14.9689 24.8787 15.8787 26.0862 17.0862L28 19V20.5H22.3246C22.1096 20.5 21.896 20.4653 21.6921 20.3974L18.8675 19.4558C18.0509 19.1836 17.5 18.4193 17.5 17.5585Z" fill="#497B7C"/>
</svg>