<svg width="24" height="24" viewBox="0 0 24 24" fill="none" xmlns="http://www.w3.org/2000/svg">
<path d="M17.3634 0H6.573C2.94168 0 0 2.90621 0 6.49373V16.9758C0 20.5606 2.94168 23.4695 6.573 23.4695H17.3634C20.9948 23.4695 23.9392 20.5606 23.9392 16.9758V6.49373C23.9392 2.90621 20.9948 0 17.3634 0ZM21.5479 15.7905C21.5479 18.7375 19.1319 21.127 16.1463 21.127H7.79015C4.80725 21.127 2.38852 18.7375 2.38852 15.7905V7.67811C2.38852 4.73119 4.80725 2.34162 7.79015 2.34162H16.1463C19.1319 2.34162 21.5479 4.73119 21.5479 7.67811V15.7905Z" fill="#397D7E"/>
<path d="M15.6903 4.03086H8.24904C5.9631 4.03086 4.11035 5.86126 4.11035 8.11964V15.3499C4.11035 17.6083 5.9631 19.4387 8.24904 19.4387H15.6893C17.9734 19.4387 19.8253 17.6083 19.8253 15.3499V8.11964C19.8253 5.86126 17.9725 4.03086 15.6893 4.03086H15.6903ZM12.0608 16.4537C9.41949 16.4537 7.28191 14.341 7.28191 11.7325C7.28191 9.12397 9.4204 7.01126 12.0608 7.01126C14.7011 7.01126 16.8424 9.12397 16.8424 11.7325C16.8424 14.341 14.7011 16.4537 12.0608 16.4537ZM16.6794 7.18498C16.3094 7.18498 16.0053 6.88459 16.0053 6.51724C16.0053 6.1499 16.3094 5.85131 16.6794 5.85131C17.0494 5.85131 17.3553 6.15171 17.3553 6.51724C17.3553 6.88278 17.0512 7.18498 16.6794 7.18498Z" fill="#397D7E"/>
<path d="M15.083 11.7316C15.083 13.3802 13.7303 14.7165 12.0616 14.7165C10.393 14.7165 9.04028 13.3802 9.04028 11.7316C9.04028 10.0831 10.393 8.74669 12.0616 8.74669C13.7303 8.74669 15.083 10.0831 15.083 11.7316Z" fill="#397D7E"/>
</svg>