<svg width="24" height="24" viewBox="0 0 24 24" fill="none" xmlns="http://www.w3.org/2000/svg">
<path d="M10.1389 19.9762C9.59975 20.6052 8.6528 20.678 8.02381 20.1389C7.39482 19.5998 7.32198 18.6528 7.86111 18.0238L10.1389 19.9762ZM7.86111 5.97619C7.32198 5.3472 7.39482 4.40025 8.02381 3.86112C8.6528 3.32198 9.59975 3.39483 10.1389 4.02381L7.86111 5.97619ZM7.86111 18.0238L13.1917 11.8048L15.4695 13.7571L10.1389 19.9762L7.86111 18.0238ZM13.1917 12.1952L7.86111 5.97619L10.1389 4.02381L15.4695 10.2429L13.1917 12.1952ZM13.1917 11.8048C13.0954 11.9171 13.0954 12.0829 13.1917 12.1952L15.4695 10.2429C16.3362 11.254 16.3362 12.746 15.4695 13.7571L13.1917 11.8048Z" fill="white"/>
</svg>