<svg width="24" height="24" viewBox="0 0 24 24" fill="none" xmlns="http://www.w3.org/2000/svg">
<path d="M13.8611 19.9762C14.4002 20.6052 15.3472 20.678 15.9762 20.1389C16.6052 19.5998 16.678 18.6528 16.1389 18.0238L13.8611 19.9762ZM16.1389 5.97619C16.678 5.3472 16.6052 4.40025 15.9762 3.86112C15.3472 3.32198 14.4002 3.39483 13.8611 4.02381L16.1389 5.97619ZM16.1389 18.0238L10.8083 11.8048L8.5305 13.7571L13.8611 19.9762L16.1389 18.0238ZM10.8083 12.1952L16.1389 5.97619L13.8611 4.02381L8.5305 10.2429L10.8083 12.1952ZM10.8083 11.8048C10.9046 11.9171 10.9046 12.0829 10.8083 12.1952L8.5305 10.2429C7.66383 11.254 7.66382 12.746 8.5305 13.7571L10.8083 11.8048Z" fill="white"/>
</svg>