<svg width="18" height="18" viewBox="0 0 18 18" fill="none" xmlns="http://www.w3.org/2000/svg">
<path fill-rule="evenodd" clip-rule="evenodd" d="M9 18C4.02944 18 0 13.9706 0 9C0 4.02944 4.02944 0 9 0C13.9706 0 18 4.02944 18 9C18 13.9706 13.9706 18 9 18ZM8.31927 8.86168C8.21275 8.96059 8.21275 9.12917 8.31927 9.22808L10.6801 11.4203C10.9836 11.7021 11.0012 12.1767 10.7194 12.4802C10.4375 12.7838 9.96296 12.8013 9.65943 12.5195L7.29859 10.3273C6.55298 9.63491 6.55298 8.45485 7.29859 7.76249L9.65943 5.57028C9.96296 5.28843 10.4375 5.30601 10.7194 5.60954C11.0012 5.91307 10.9836 6.38762 10.6801 6.66947L8.31927 8.86168Z" fill="white"/>
</svg>