<svg width="55" height="55" viewBox="0 0 55 55" fill="none" xmlns="http://www.w3.org/2000/svg">
<circle cx="27.5" cy="27.5" r="27.5" fill="#497B7C" fill-opacity="0.1"/>
<path d="M16.1213 16.0149C16.3032 15.2874 16.3941 14.9236 16.6654 14.7118C16.9366 14.5 17.3116 14.5 18.0616 14.5H35.9384C36.6884 14.5 37.0634 14.5 37.3346 14.7118C37.6059 14.9236 37.6968 15.2874 37.8787 16.0149L39.8787 24.0149C40.1647 25.1589 40.3077 25.7308 40.0074 26.1154C39.7072 26.5 39.1176 26.5 37.9384 26.5H37.869C36.2698 26.5 35.4702 26.5 34.9139 26.0365C34.9056 26.0295 34.8974 26.0226 34.8892 26.0155C34.3405 25.543 34.2091 24.7543 33.9461 23.1769V23.1769C33.872 22.732 33.8349 22.5096 33.7516 22.5083C33.7505 22.5083 33.7495 22.5083 33.7484 22.5083C33.6651 22.5096 33.628 22.732 33.5539 23.1769L33.4315 23.9107C33.2867 24.7799 33.2143 25.2144 33.0095 25.5475C32.7864 25.9103 32.4534 26.1924 32.0589 26.3528C31.6967 26.5 31.2561 26.5 30.375 26.5V26.5C29.4939 26.5 29.0533 26.5 28.6911 26.3528C28.2966 26.1924 27.9636 25.9103 27.7405 25.5475C27.5357 25.2144 27.4633 24.7799 27.3185 23.9107L27.1961 23.1769C27.122 22.732 27.0849 22.5096 27.0016 22.5083C27.0005 22.5083 26.9995 22.5083 26.9984 22.5083C26.9151 22.5096 26.878 22.732 26.8039 23.1769L26.6815 23.9107C26.5367 24.7799 26.4643 25.2144 26.2595 25.5475C26.0364 25.9103 25.7034 26.1924 25.3089 26.3528C24.9467 26.5 24.5061 26.5 23.625 26.5V26.5C22.7439 26.5 22.3033 26.5 21.9411 26.3528C21.5466 26.1924 21.2136 25.9103 20.9905 25.5475C20.7857 25.2144 20.7133 24.7799 20.5685 23.9107L20.4461 23.1769C20.372 22.732 20.3349 22.5096 20.2516 22.5083C20.2505 22.5083 20.2495 22.5083 20.2484 22.5083C20.1651 22.5096 20.128 22.732 20.0539 23.1769V23.1769C19.7909 24.7543 19.6595 25.543 19.1108 26.0155C19.1026 26.0226 19.0944 26.0295 19.0861 26.0365C18.5298 26.5 17.7302 26.5 16.131 26.5H16.0616C14.8824 26.5 14.2928 26.5 13.9926 26.1154C13.6923 25.7308 13.8353 25.1589 14.1213 24.0149L16.1213 16.0149Z" fill="#497B7C"/>
<path fill-rule="evenodd" clip-rule="evenodd" d="M16.5043 27.9999C16.5 28.3003 16.5 28.6322 16.5 29V41C16.5 41.9428 16.5 42.4142 16.7929 42.7071C17.0858 43 17.5572 43 18.5 43H24V36.5C24 35.9477 24.4477 35.5 25 35.5H29C29.5523 35.5 30 35.9477 30 36.5V43H35.5C36.4428 43 36.9142 43 37.2071 42.7071C37.5 42.4142 37.5 41.9428 37.5 41V29C37.5 28.6322 37.5 28.3003 37.4957 27.9999C36.8764 27.9988 36.3026 27.9908 35.8166 27.9308C35.1934 27.8538 34.5367 27.6747 33.9536 27.1888C33.9391 27.1767 33.9247 27.1645 33.9104 27.1522C33.8545 27.104 33.8013 27.0547 33.7507 27.0044C33.4283 27.3192 33.0462 27.5706 32.6238 27.7424C32.2375 27.8994 31.8614 27.954 31.5153 27.978C31.1971 28.0001 30.8216 28 30.4179 28L30.375 28L30.3321 28C29.9284 28 29.5529 28.0001 29.2347 27.978C28.8886 27.954 28.5125 27.8994 28.1262 27.7424C27.7041 27.5708 27.3223 27.3196 27 27.0051C26.6777 27.3196 26.2959 27.5708 25.8738 27.7424C25.4875 27.8994 25.1114 27.954 24.7653 27.978C24.4471 28.0001 24.0716 28 23.6679 28L23.625 28L23.5821 28C23.1784 28 22.8029 28.0001 22.4847 27.978C22.1386 27.954 21.7625 27.8994 21.3762 27.7424C20.9538 27.5706 20.5717 27.3192 20.2493 27.0044C20.1987 27.0547 20.1455 27.104 20.0896 27.1522C20.0753 27.1645 20.0609 27.1767 20.0464 27.1888C19.4633 27.6747 18.8066 27.8538 18.1834 27.9308C17.6974 27.9908 17.1236 27.9988 16.5043 27.9999ZM23.5993 25C23.6078 25 23.6164 25 23.625 25C23.6336 25 23.6422 25 23.6507 25H23.5993ZM30.3493 25H30.4007C30.3922 25 30.3836 25 30.375 25C30.3664 25 30.3578 25 30.3493 25ZM26 43H28V37.5H26V43Z" fill="#497B7C"/>
</svg>