<svg xmlns="http://www.w3.org/2000/svg" width="55" height="55" viewBox="0 0 55 55">
    <defs>
        <style>
            .cls-1{fill:#fff;}
        </style>
    </defs>
    <g id="Camada_2" data-name="Camada 2">
        <g id="Camada_1-2" data-name="Camada 1">
            <path class="cls-1" d="M102.91,17.6A59.11,59.11,0,0,0,60.51,0a60.16,60.16,0,0,0-60,59.9,59.47,59.47,0,0,0,7.4,28.9L.11,117.1a2.92,2.92,0,0,0,.8,2.9,2.88,2.88,0,0,0,2.1.9,2.2,2.2,0,0,0,.8-.1l29.1-7.6A60,60,0,0,0,120.51,60,59.28,59.28,0,0,0,102.91,17.6Zm-42.6,89.7a47.46,47.46,0,0,1-24.1-6.6l-1.7-1-17.9,4.7,4.8-17.5-1.1-1.8a47.39,47.39,0,0,1,40.2-72.5A47.13,47.13,0,0,1,94,26.5,45.26,45.26,0,0,1,107.61,60,47.33,47.33,0,0,1,60.31,107.3Z"/>
            <path class="cls-1" d="M46.51,35.5c-1.1-2.4-2.2-2.4-3.2-2.5h-2.7a5.45,5.45,0,0,0-3.8,1.8,16,16,0,0,0-5,11.9c0,7,5.1,13.8,5.8,14.7s9.8,15.8,24.3,21.5c12,4.7,14.5,3.8,17.1,3.6s8.4-3.4,9.6-6.8,1.2-6.2.8-6.8-1.3-.9-2.7-1.7S78.31,67,77,66.6s-2.3-.7-3.2.7-3.7,4.6-4.5,5.6-1.7,1.1-3.1.4a37.71,37.71,0,0,1-11.4-7.1,41.62,41.62,0,0,1-7.9-9.9c-.8-1.4-.1-2.2.6-2.9s1.4-1.7,2.1-2.5A9.46,9.46,0,0,0,51,48.5a2.71,2.71,0,0,0-.1-2.5C50.51,45.3,47.81,38.3,46.51,35.5Z"/>
        </g>
    </g>
</svg>