<svg width="192" height="47" viewBox="0 0 192 47" fill="none" xmlns="http://www.w3.org/2000/svg">
<path d="M9.50779 26.4452C6.80126 26.4452 4.53998 25.5634 2.72399 23.7998C0.907993 22.0362 0 19.8448 0 17.2255C0 14.6063 0.907993 12.4149 2.72399 10.6513C4.53998 8.88769 6.80126 8.00586 9.50779 8.00586C11.2932 8.00586 12.9127 8.40748 14.362 9.21071C15.8113 10.0139 16.9464 11.1228 17.767 12.5328C18.5877 13.9428 18.9981 15.5056 18.9981 17.2255C18.9981 18.9455 18.5877 20.5083 17.767 21.9183C16.9464 23.3283 15.8113 24.4371 14.362 25.2404C12.9127 26.0436 11.2932 26.4452 9.50779 26.4452ZM6.42145 20.325C7.24214 21.1544 8.26803 21.5734 9.50779 21.5734C10.7476 21.5734 11.7735 21.1587 12.5941 20.325C13.4148 19.4955 13.8251 18.4609 13.8251 17.2255C13.8251 15.9901 13.4148 14.9555 12.5941 14.1261C11.7735 13.2967 10.7476 12.8776 9.50779 12.8776C8.26803 12.8776 7.24214 13.2923 6.42145 14.1261C5.60076 14.9599 5.19038 15.9901 5.19038 17.2255C5.19038 18.4609 5.60076 19.4955 6.42145 20.325Z" fill="white"/>
<path d="M33.1856 1.1655H38.2232V26.0263H33.1856V24.2714C31.7712 25.7207 29.9945 26.4454 27.8598 26.4454C25.4458 26.4454 23.4246 25.5636 21.8007 23.8C20.1767 22.0364 19.3647 19.8449 19.3647 17.2257C19.3647 14.6065 20.1767 12.4151 21.8007 10.6515C23.4246 8.88786 25.4458 8.00603 27.8598 8.00603C29.9945 8.00603 31.7712 8.7307 33.1856 10.18V1.16113V1.1655ZM28.8725 21.578C30.1079 21.578 31.1382 21.1633 31.9589 20.3295C32.7796 19.4957 33.19 18.4655 33.19 17.2301C33.19 15.9947 32.7796 14.9601 31.9589 14.1307C31.1382 13.3012 30.1123 12.8822 28.8725 12.8822C27.6328 12.8822 26.6287 13.2969 25.8124 14.1307C24.9961 14.9644 24.5902 15.9947 24.5902 17.2301C24.5902 18.4655 24.9961 19.5001 25.8124 20.3295C26.6287 21.1589 27.6459 21.578 28.8725 21.578Z" fill="white"/>
<path d="M49.058 26.4452C46.3514 26.4452 44.0903 25.5634 42.2743 23.7998C40.4583 22.0362 39.5503 19.8448 39.5503 17.2255C39.5503 14.6063 40.4583 12.4149 42.2743 10.6513C44.0903 8.88769 46.3514 8.00586 49.058 8.00586C50.8434 8.00586 52.463 8.40748 53.9123 9.21071C55.3616 10.0139 56.4966 11.1228 57.3173 12.5328C58.138 13.9428 58.5483 15.5056 58.5483 17.2255C58.5483 18.9455 58.138 20.5083 57.3173 21.9183C56.4966 23.3283 55.3616 24.4371 53.9123 25.2404C52.463 26.0436 50.8434 26.4452 49.058 26.4452ZM45.9717 20.325C46.7924 21.1544 47.8182 21.5734 49.058 21.5734C50.2977 21.5734 51.3236 21.1587 52.1443 20.325C52.965 19.4955 53.3754 18.4609 53.3754 17.2255C53.3754 15.9901 52.965 14.9555 52.1443 14.1261C51.3236 13.2967 50.2977 12.8776 49.058 12.8776C47.8182 12.8776 46.7924 13.2923 45.9717 14.1261C45.151 14.9599 44.7407 15.9901 44.7407 17.2255C44.7407 18.4609 45.151 19.4955 45.9717 20.325Z" fill="white"/>
<path d="M70.2738 8.01025C72.2949 8.01025 73.9276 8.62141 75.163 9.83935C76.3984 11.0573 77.0183 12.6812 77.0183 14.7024V26.0305H71.9806V16.4049C71.9806 15.3397 71.6707 14.4841 71.0465 13.8424C70.4222 13.2007 69.5928 12.882 68.5582 12.882C67.5236 12.882 66.6069 13.2094 65.939 13.8686C65.2711 14.5278 64.9349 15.3921 64.9349 16.4703V26.0262H59.8973V8.42934H64.9349V10.1842C66.3493 8.73492 68.1304 8.01025 70.2781 8.01025H70.2738Z" fill="white"/>
<path d="M89.4814 13.013H84.9632V19.4694C84.9632 20.875 85.7009 21.5779 87.1721 21.5779C87.9011 21.5779 88.6738 21.3683 89.4814 20.9536V25.69C88.4817 26.1964 87.3554 26.4496 86.1113 26.4496C84.0421 26.4496 82.4967 25.8952 81.4665 24.7908C80.4363 23.6863 79.9256 22.189 79.9256 20.2988V13.0174H77.2627V8.43373H79.9256V4.06836H84.9632V8.43373H89.4814V13.0174V13.013Z" fill="white"/>
<path d="M98.9673 26.4452C96.2608 26.4452 93.9995 25.5634 92.1835 23.7998C90.3675 22.0362 89.4595 19.8448 89.4595 17.2255C89.4595 14.6063 90.3675 12.4149 92.1835 10.6513C93.9995 8.88769 96.2608 8.00586 98.9673 8.00586C100.753 8.00586 102.372 8.40748 103.822 9.21071C105.271 10.0139 106.406 11.1228 107.227 12.5328C108.047 13.9428 108.458 15.5056 108.458 17.2255C108.458 18.9455 108.047 20.5083 107.227 21.9183C106.406 23.3283 105.271 24.4371 103.822 25.2404C102.372 26.0436 100.753 26.4452 98.9673 26.4452ZM95.881 20.325C96.7017 21.1544 97.7276 21.5734 98.9673 21.5734C100.207 21.5734 101.233 21.1587 102.054 20.325C102.874 19.4955 103.285 18.4609 103.285 17.2255C103.285 15.9901 102.874 14.9555 102.054 14.1261C101.233 13.2967 100.207 12.8776 98.9673 12.8776C97.7276 12.8776 96.7017 13.2923 95.881 14.1261C95.0603 14.9599 94.65 15.9901 94.65 17.2255C94.65 18.4609 95.0603 19.4955 95.881 20.325Z" fill="white"/>
<path d="M124.221 26.4452C121.515 26.4452 119.253 25.5634 117.437 23.7998C115.621 22.0362 114.713 19.8448 114.713 17.2255C114.713 14.6063 115.621 12.4149 117.437 10.6513C119.253 8.88769 121.515 8.00586 124.221 8.00586C125.972 8.00586 127.565 8.39877 128.992 9.1758C130.42 9.9572 131.542 11.0267 132.362 12.3843L127.98 15.0472C127.609 14.3837 127.093 13.8555 126.43 13.4626C125.766 13.0697 125.029 12.8733 124.221 12.8733C122.986 12.8733 121.955 13.288 121.135 14.1217C120.314 14.9555 119.904 15.9858 119.904 17.2212C119.904 18.4566 120.314 19.4912 121.135 20.3206C121.955 21.15 122.981 21.5691 124.221 21.5691C125.029 21.5691 125.766 21.3726 126.43 20.9798C127.093 20.5869 127.609 20.0587 127.98 19.3951L132.362 22.0405C131.542 23.4113 130.42 24.4852 128.992 25.2666C127.565 26.048 125.976 26.4365 124.221 26.4365V26.4452Z" fill="white"/>
<path d="M133.218 26.0263V1.16553H138.256V26.0263H133.218Z" fill="white"/>
<path d="M143.141 6.17264C142.263 6.17264 141.53 5.87578 140.932 5.28646C140.338 4.69713 140.037 3.95938 140.037 3.06884C140.037 2.17831 140.334 1.4624 140.932 0.877444C141.525 0.292484 142.263 0 143.141 0C144.018 0 144.791 0.292484 145.389 0.877444C145.991 1.4624 146.292 2.1914 146.292 3.06884C146.292 3.94628 145.991 4.69713 145.389 5.28646C144.786 5.87578 144.035 6.17264 143.141 6.17264ZM140.63 26.0263V8.42953H145.668V26.0263H140.63Z" fill="white"/>
<path d="M158.424 8.01025C160.445 8.01025 162.077 8.62141 163.313 9.83935C164.548 11.0573 165.168 12.6812 165.168 14.7024V26.0305H160.131V16.4049C160.131 15.3397 159.821 14.4841 159.196 13.8424C158.572 13.2007 157.743 12.882 156.708 12.882C155.674 12.882 154.757 13.2094 154.089 13.8686C153.421 14.5278 153.085 15.3921 153.085 16.4703V26.0262H148.047V8.42934H153.085V10.1842C154.499 8.73492 156.28 8.01025 158.428 8.01025H158.424Z" fill="white"/>
<path d="M169.73 6.17264C168.853 6.17264 168.119 5.87578 167.521 5.28646C166.927 4.69713 166.626 3.95938 166.626 3.06884C166.626 2.17831 166.923 1.4624 167.521 0.877444C168.115 0.292484 168.853 0 169.73 0C170.607 0 171.38 0.292484 171.978 0.877444C172.581 1.4624 172.882 2.1914 172.882 3.06884C172.882 3.94628 172.581 4.69713 171.978 5.28646C171.376 5.87578 170.625 6.17264 169.73 6.17264ZM167.22 26.0263V8.42953H172.258V26.0263H167.22Z" fill="white"/>
<path d="M183.092 26.4452C180.386 26.4452 178.125 25.5634 176.309 23.7998C174.493 22.0362 173.585 19.8448 173.585 17.2255C173.585 14.6063 174.493 12.4149 176.309 10.6513C178.125 8.88769 180.386 8.00586 183.092 8.00586C184.843 8.00586 186.436 8.39877 187.864 9.1758C189.291 9.9572 190.413 11.0267 191.234 12.3843L186.851 15.0472C186.48 14.3837 185.965 13.8555 185.301 13.4626C184.638 13.0697 183.9 12.8733 183.092 12.8733C181.857 12.8733 180.827 13.288 180.006 14.1217C179.185 14.9555 178.775 15.9858 178.775 17.2212C178.775 18.4566 179.185 19.4912 180.006 20.3206C180.827 21.15 181.853 21.5691 183.092 21.5691C183.9 21.5691 184.638 21.3726 185.301 20.9798C185.965 20.5869 186.48 20.0587 186.851 19.3951L191.234 22.0405C190.413 23.4113 189.291 24.4852 187.864 25.2666C186.436 26.048 184.847 26.4365 183.092 26.4365V26.4452Z" fill="white"/>
<path d="M4.86745 46.1896C3.95946 46.1896 3.12995 45.98 2.38348 45.5653C1.637 45.1506 1.05203 44.5744 0.632958 43.8454C0.209517 43.1164 0 42.3044 0 41.4095C0 40.5146 0.209517 39.707 0.632958 38.9736C1.0564 38.2402 1.64136 37.6683 2.38348 37.2536C3.12995 36.8389 3.95509 36.6294 4.86745 36.6294C5.77982 36.6294 6.57862 36.8346 7.31637 37.2449C8.04975 37.6553 8.62595 38.214 9.0363 38.9169L7.70058 39.7201C7.42119 39.2268 7.02823 38.8339 6.53058 38.5458C6.02856 38.2577 5.47424 38.1136 4.87182 38.1136C3.93327 38.1136 3.15182 38.4279 2.52757 39.0565C1.90332 39.6852 1.59342 40.4709 1.59342 41.4095C1.59342 42.348 1.90332 43.1294 2.52757 43.7624C3.15182 44.391 3.93327 44.7053 4.87182 44.7053C5.47861 44.7053 6.03293 44.5613 6.53058 44.2688C7.0326 43.9763 7.42119 43.5835 7.70058 43.0902L9.0363 43.8934C8.62159 44.6049 8.04538 45.1637 7.312 45.5741C6.57425 45.9844 5.76236 46.1896 4.87182 46.1896H4.86745Z" fill="white"/>
<path d="M14.2443 46.1896C13.3363 46.1896 12.5068 45.98 11.7603 45.5653C11.0138 45.1506 10.429 44.5744 10.0099 43.8454C9.58645 43.1164 9.37683 42.3044 9.37683 41.4095C9.37683 40.5146 9.58645 39.707 10.0099 38.9736C10.4333 38.2402 11.0182 37.6683 11.7603 37.2536C12.5068 36.8389 13.3319 36.6294 14.2443 36.6294C15.6194 36.6294 16.7718 37.0878 17.7016 38.0001C18.6315 38.9169 19.0942 40.0519 19.0942 41.4095C19.0942 42.7671 18.6315 43.9021 17.7016 44.8188C16.7718 45.7356 15.6194 46.1896 14.2443 46.1896ZM14.2443 44.7053C15.1741 44.7053 15.9511 44.391 16.571 43.7624C17.1908 43.1338 17.5008 42.348 17.5008 41.4095C17.5008 40.4709 17.1908 39.6895 16.571 39.0565C15.9511 38.4279 15.1741 38.1136 14.2443 38.1136C13.3145 38.1136 12.5243 38.4279 11.9 39.0565C11.2758 39.6852 10.9659 40.4709 10.9659 41.4095C10.9659 42.348 11.2758 43.1294 11.9 43.7624C12.5243 44.391 13.3057 44.7053 14.2443 44.7053Z" fill="white"/>
<path d="M25.0965 36.6294C26.2097 36.6294 27.1046 36.9655 27.7856 37.6422C28.4623 38.3188 28.8027 39.2137 28.8027 40.3356V45.9713H27.2661V40.8158C27.2661 39.9995 27.026 39.3447 26.5415 38.8558C26.0569 38.3625 25.4108 38.118 24.5989 38.118C23.7869 38.118 23.0797 38.3668 22.5733 38.8688C22.0669 39.3709 21.8137 40.03 21.8137 40.8507V45.9713H20.2771V36.8477H21.8137V38.2358C22.5515 37.162 23.6472 36.6294 25.1009 36.6294H25.0965Z" fill="white"/>
<path d="M33.4213 46.1896C31.9458 46.1896 30.7104 45.7138 29.7151 44.7578L30.5707 43.649C31.3172 44.4129 32.2557 44.7927 33.3951 44.7927C34.0149 44.7927 34.5213 44.6792 34.9142 44.4478C35.3115 44.2165 35.5079 43.9022 35.5079 43.5006C35.5079 43.3303 35.4643 43.1775 35.3813 43.0422C35.2984 42.9069 35.198 42.7934 35.0845 42.7061C34.971 42.6188 34.8007 42.5314 34.5781 42.4485C34.3554 42.3656 34.1591 42.3001 33.9932 42.2564C33.8273 42.2128 33.5915 42.1517 33.2903 42.0774C33.0109 42.0076 32.7883 41.9508 32.6268 41.9072C32.4652 41.8635 32.2514 41.7937 31.9938 41.702C31.7362 41.6103 31.5267 41.5187 31.3652 41.4314C31.2037 41.344 31.0291 41.2306 30.8414 41.0865C30.6537 40.9424 30.5052 40.794 30.3961 40.6325C30.287 40.471 30.1996 40.2789 30.1254 40.0563C30.0512 39.8336 30.0163 39.5848 30.0163 39.3185C30.0163 38.7467 30.1778 38.2534 30.5052 37.843C30.8326 37.4283 31.2517 37.1271 31.7712 36.9307C32.2906 36.7342 32.8669 36.6382 33.5086 36.6382C34.8269 36.6382 35.9402 37.0529 36.8569 37.8867L35.9924 39.0129C35.3202 38.3625 34.4995 38.0351 33.526 38.0351C32.9716 38.0351 32.5133 38.1399 32.1466 38.3494C31.7799 38.5589 31.5966 38.8514 31.5966 39.2312C31.5966 39.4058 31.6403 39.563 31.7276 39.6983C31.8149 39.8336 31.9153 39.9471 32.0288 40.0345C32.1423 40.1218 32.3168 40.2091 32.5482 40.292C32.7796 40.3749 32.9761 40.4404 33.1376 40.4841C33.2991 40.5277 33.5348 40.5889 33.8491 40.6631C34.1241 40.7286 34.3424 40.7809 34.5083 40.8246C34.6741 40.8682 34.8837 40.9337 35.1412 41.021C35.3988 41.1083 35.604 41.1956 35.7655 41.2786C35.9271 41.3615 36.0973 41.475 36.285 41.6147C36.4727 41.7544 36.6168 41.9028 36.7215 42.06C36.8263 42.2171 36.9135 42.4092 36.9878 42.6318C37.062 42.8545 37.0969 43.0989 37.0969 43.3609C37.0969 44.2427 36.7521 44.9324 36.058 45.4344C35.3639 45.9364 34.4864 46.1896 33.4169 46.1896H33.4213Z" fill="white"/>
<path d="M45.186 45.138C44.4308 45.8408 43.4311 46.1901 42.1826 46.1901C40.9341 46.1901 39.9344 45.8408 39.1792 45.138C38.424 44.4352 38.0486 43.5097 38.0486 42.3529V36.8481H39.5853V42.1433C39.5853 42.9116 39.8209 43.5315 40.2968 43.9986C40.7726 44.4657 41.4012 44.7015 42.1783 44.7015C42.9553 44.7015 43.5883 44.4657 44.0598 43.9986C44.5356 43.5315 44.7713 42.9116 44.7713 42.1433V36.8481H46.3079V42.3529C46.3079 43.5054 45.9281 44.4352 45.1772 45.138H45.186Z" fill="white"/>
<path d="M47.9493 45.9715V33.0806H49.4859V45.9715H47.9493Z" fill="white"/>
<path d="M56.5053 38.236H53.7596V43.2868C53.7596 44.2297 54.2485 44.7012 55.2263 44.7012C55.6498 44.7012 56.0776 44.5877 56.5011 44.3607V45.81C56.0427 46.0588 55.5057 46.1854 54.9033 46.1854C54.0258 46.1854 53.3579 45.954 52.9039 45.4956C52.4499 45.0373 52.223 44.3781 52.223 43.5312V38.236H50.5816V36.8478H52.223V34.3901H53.7596V36.8478H56.5053V38.236Z" fill="white"/>
<path d="M61.543 46.19C60.635 46.19 59.8056 45.9805 59.0591 45.5658C58.3127 45.1511 57.7277 44.5748 57.3086 43.8458C56.8852 43.1168 56.6757 42.3048 56.6757 41.4099C56.6757 40.515 56.8852 39.7074 57.3086 38.974C57.7321 38.2407 58.317 37.6688 59.0591 37.2541C59.8056 36.8394 60.6306 36.6298 61.543 36.6298C62.9181 36.6298 64.0706 37.0882 65.0005 38.0006C65.9303 38.9173 66.393 40.0523 66.393 41.4099C66.393 42.7676 65.9303 43.9025 65.0005 44.8193C64.0706 45.736 62.9181 46.19 61.543 46.19ZM61.543 44.7058C62.4728 44.7058 63.2499 44.3915 63.8698 43.7629C64.4897 43.1343 64.7996 42.3485 64.7996 41.4099C64.7996 40.4714 64.4897 39.69 63.8698 39.057C63.2499 38.4284 62.4728 38.1141 61.543 38.1141C60.6132 38.1141 59.8231 38.4284 59.1989 39.057C58.5746 39.6856 58.2646 40.4714 58.2646 41.4099C58.2646 42.3485 58.5746 43.1299 59.1989 43.7629C59.8231 44.3915 60.6045 44.7058 61.543 44.7058ZM60.5914 35.6433L62.451 33.334H64.4242L62.2415 35.6433H60.5914Z" fill="white"/>
<path d="M72.2207 36.6997H72.5264V38.2887H72.2207C71.2603 38.2887 70.5008 38.5681 69.9464 39.1312C69.3876 39.6943 69.1126 40.4539 69.1126 41.4055V45.9674H67.576V36.8437H69.1126V38.4153C69.8285 37.2672 70.8674 36.6953 72.2251 36.6953L72.2207 36.6997Z" fill="white"/>
<path d="M74.1153 35.0235C73.8185 35.0235 73.5697 34.9274 73.3732 34.731C73.1768 34.5345 73.0764 34.2945 73.0764 34.002C73.0764 33.7095 73.1768 33.4607 73.3732 33.2686C73.5697 33.0765 73.8185 32.9805 74.1153 32.9805C74.4122 32.9805 74.6479 33.0765 74.8399 33.2686C75.032 33.4607 75.1281 33.7051 75.1281 34.002C75.1281 34.2988 75.0321 34.5345 74.8357 34.731C74.6392 34.9274 74.3991 35.0235 74.1153 35.0235ZM73.347 45.9718V36.8482H74.8836V45.9718H73.347Z" fill="white"/>
<path d="M80.9122 46.1896C80.0042 46.1896 79.1748 45.98 78.4283 45.5653C77.6818 45.1506 77.0969 44.5744 76.6778 43.8454C76.2544 43.1164 76.0447 42.3044 76.0447 41.4095C76.0447 40.5146 76.2544 39.707 76.6778 38.9736C77.1012 38.2402 77.6862 37.6683 78.4283 37.2536C79.1748 36.8389 79.9998 36.6294 80.9122 36.6294C82.2873 36.6294 83.4397 37.0878 84.3695 38.0001C85.2994 38.9169 85.7621 40.0519 85.7621 41.4095C85.7621 42.7671 85.2994 43.9021 84.3695 44.8188C83.4397 45.7356 82.2873 46.1896 80.9122 46.1896ZM80.9122 44.7053C81.842 44.7053 82.6191 44.391 83.239 43.7624C83.8589 43.1338 84.1687 42.348 84.1687 41.4095C84.1687 40.4709 83.8589 39.6895 83.239 39.0565C82.6191 38.4279 81.842 38.1136 80.9122 38.1136C79.9824 38.1136 79.1922 38.4279 78.5679 39.0565C77.9437 39.6852 77.6338 40.4709 77.6338 41.4095C77.6338 42.348 77.9437 43.1294 78.5679 43.7624C79.1922 44.391 79.9736 44.7053 80.9122 44.7053Z" fill="white"/>
<path d="M98.0638 33.0806H99.6004V45.9715H98.0638V44.3301C97.6753 44.9107 97.1688 45.3691 96.5577 45.6965C95.9421 46.0239 95.2612 46.1898 94.5191 46.1898C93.6635 46.1898 92.8865 45.9803 92.1837 45.5655C91.4852 45.1508 90.9395 44.5746 90.5466 43.8456C90.1538 43.1166 89.9573 42.3046 89.9573 41.4097C89.9573 40.5148 90.1538 39.7072 90.5466 38.9738C90.9395 38.2448 91.4852 37.6686 92.1837 37.2539C92.8821 36.8392 93.6591 36.6296 94.5191 36.6296C95.2655 36.6296 95.9465 36.7955 96.5577 37.1229C97.1732 37.4503 97.6753 37.9087 98.0638 38.4893V33.0806ZM94.8029 44.7056C95.7371 44.7056 96.5097 44.3913 97.1339 43.7626C97.7538 43.134 98.0638 42.3483 98.0638 41.4097C98.0638 40.4711 97.7538 39.6897 97.1339 39.0568C96.514 38.4281 95.7371 38.1139 94.8029 38.1139C93.8687 38.1139 93.0829 38.4281 92.4586 39.0568C91.8344 39.6854 91.5245 40.4711 91.5245 41.4097C91.5245 42.3483 91.8344 43.1297 92.4586 43.7626C93.0829 44.3913 93.8643 44.7056 94.8029 44.7056Z" fill="white"/>
<path d="M110.339 41.4099C110.339 41.4972 110.326 41.7242 110.296 42.0909H102.438C102.595 42.8941 102.979 43.5446 103.586 44.0335C104.193 44.5268 104.939 44.7713 105.821 44.7713C106.471 44.7713 107.074 44.6316 107.62 44.3565C108.165 44.0815 108.597 43.7236 108.903 43.287L109.959 44.195C109.501 44.8149 108.903 45.2995 108.174 45.6531C107.445 46.0067 106.642 46.1856 105.764 46.1856C104.337 46.1856 103.149 45.7273 102.198 44.8062C101.25 43.8851 100.775 42.7414 100.775 41.3706C100.775 40.4845 100.984 39.6812 101.399 38.9522C101.814 38.2276 102.39 37.6557 103.123 37.2454C103.857 36.8307 104.673 36.6255 105.572 36.6255C106.471 36.6255 107.275 36.8307 107.999 37.2454C108.728 37.6601 109.3 38.2319 109.711 38.961C110.125 39.6943 110.33 40.5063 110.33 41.4055L110.339 41.4099ZM105.559 38.0442C104.769 38.0442 104.084 38.2887 103.507 38.782C102.931 39.2752 102.569 39.9126 102.425 40.6896H108.707C108.562 39.8995 108.2 39.2578 107.624 38.7732C107.048 38.2887 106.358 38.0442 105.563 38.0442H105.559Z" fill="white"/>
<path d="M116.289 36.6294C117.402 36.6294 118.297 36.9655 118.978 37.6422C119.655 38.3188 119.995 39.2137 119.995 40.3356V45.9713H118.459V40.8158C118.459 39.9995 118.219 39.3447 117.734 38.8558C117.25 38.3625 116.603 38.118 115.792 38.118C114.98 38.118 114.272 38.3668 113.766 38.8688C113.26 39.3709 113.006 40.03 113.006 40.8507V45.9713H111.47V36.8477H113.006V38.2358C113.744 37.162 114.84 36.6294 116.294 36.6294H116.289Z" fill="white"/>
<path d="M126.404 38.236H123.658V43.2868C123.658 44.2297 124.147 44.7012 125.125 44.7012C125.548 44.7012 125.976 44.5877 126.399 44.3607V45.81C125.941 46.0588 125.404 46.1854 124.802 46.1854C123.924 46.1854 123.256 45.954 122.802 45.4956C122.348 45.0373 122.121 44.3781 122.121 43.5312V38.236H120.48V36.8478H122.121V34.3901H123.658V36.8478H126.404V38.236Z" fill="white"/>
<path d="M134.724 36.8481H136.261V45.9717H134.724V44.3304C134.336 44.911 133.829 45.3693 133.218 45.6967C132.603 46.0241 131.922 46.19 131.179 46.19C130.324 46.19 129.547 45.9805 128.844 45.5658C128.146 45.1511 127.6 44.5748 127.207 43.8458C126.814 43.1168 126.618 42.3048 126.618 41.4099C126.618 40.515 126.814 39.7074 127.207 38.974C127.6 38.245 128.146 37.6688 128.844 37.2541C129.542 36.8394 130.319 36.6298 131.179 36.6298C131.926 36.6298 132.607 36.7957 133.218 37.1231C133.834 37.4505 134.336 37.9089 134.724 38.4895V36.8481ZM131.463 44.7058C132.397 44.7058 133.17 44.3915 133.794 43.7629C134.414 43.1343 134.724 42.3485 134.724 41.4099C134.724 40.4714 134.414 39.69 133.794 39.057C133.174 38.4284 132.397 38.1141 131.463 38.1141C130.529 38.1141 129.743 38.4284 129.119 39.057C128.495 39.6856 128.185 40.4714 128.185 41.4099C128.185 42.3485 128.495 43.1299 129.119 43.7629C129.743 44.3915 130.525 44.7058 131.463 44.7058ZM134.654 33.334L132.472 35.6433H130.822L132.681 33.334H134.654Z" fill="white"/>
<path d="M142.682 36.6997H142.988V38.2887H142.682C141.722 38.2887 140.962 38.5681 140.408 39.1312C139.849 39.6943 139.574 40.4539 139.574 41.4055V45.9674H138.037V36.8437H139.574V38.4153C140.29 37.2672 141.329 36.6953 142.687 36.6953L142.682 36.6997Z" fill="white"/>
<path d="M144.577 35.0235C144.28 35.0235 144.031 34.9274 143.835 34.731C143.638 34.5345 143.538 34.2945 143.538 34.002C143.538 33.7095 143.638 33.4607 143.835 33.2686C144.031 33.0765 144.28 32.9805 144.577 32.9805C144.874 32.9805 145.109 33.0765 145.301 33.2686C145.494 33.4607 145.59 33.7051 145.59 34.002C145.59 34.2988 145.494 34.5345 145.297 34.731C145.101 34.9274 144.86 35.0235 144.577 35.0235ZM143.809 45.9718V36.8482H145.345V45.9718H143.809Z" fill="white"/>
<path d="M151.374 46.1896C150.466 46.1896 149.636 45.98 148.89 45.5653C148.143 45.1506 147.558 44.5744 147.139 43.8454C146.716 43.1164 146.506 42.3044 146.506 41.4095C146.506 40.5146 146.716 39.707 147.139 38.9736C147.563 38.2402 148.148 37.6683 148.89 37.2536C149.636 36.8389 150.461 36.6294 151.374 36.6294C152.749 36.6294 153.901 37.0878 154.831 38.0001C155.761 38.9169 156.224 40.0519 156.224 41.4095C156.224 42.7671 155.761 43.9021 154.831 44.8188C153.901 45.7356 152.749 46.1896 151.374 46.1896ZM151.374 44.7053C152.303 44.7053 153.081 44.391 153.7 43.7624C154.32 43.1338 154.63 42.348 154.63 41.4095C154.63 40.4709 154.32 39.6895 153.7 39.0565C153.081 38.4279 152.303 38.1136 151.374 38.1136C150.444 38.1136 149.654 38.4279 149.029 39.0565C148.405 39.6852 148.095 40.4709 148.095 41.4095C148.095 42.348 148.405 43.1294 149.029 43.7624C149.654 44.391 150.435 44.7053 151.374 44.7053Z" fill="white"/>
</svg>