<svg width="190" height="43" viewBox="0 0 190 43" fill="none" xmlns="http://www.w3.org/2000/svg">
<path d="M35.827 22.5088C35.6311 28.3918 33.2087 33.8537 28.9482 37.9672L28.7981 38.1109C28.7622 38.1435 28.7295 38.1761 28.6936 38.2088C28.3867 38.4667 28.0668 38.5973 27.7403 38.5973C26.7054 38.5973 25.553 37.1478 25.553 35.0681C25.553 34.8788 25.5627 34.6894 25.5823 34.5066C25.6607 34.203 25.7129 33.8928 25.7423 33.5762L25.7521 33.488V33.4782C25.7619 33.3346 25.7684 33.1877 25.7684 33.0408C25.7684 29.7663 23.1044 27.1022 19.8267 27.1022C16.5489 27.1022 13.8882 29.7663 13.8882 33.0408C13.8882 33.1844 13.8946 33.328 13.9044 33.4717V33.4782C13.9044 33.5011 13.9044 33.5239 13.911 33.5468V33.5533C13.9403 33.8765 13.9926 34.1997 14.0742 34.5164C14.0938 34.696 14.1036 34.882 14.1036 35.0681C14.1036 37.1478 12.9512 38.5973 11.9163 38.5973C11.5931 38.5973 11.2731 38.47 10.9694 38.2153L10.8846 38.1337L10.8716 38.1272C10.8716 38.1272 10.865 38.1207 10.865 38.1174L10.7116 37.9672C6.45441 33.8569 4.02871 28.3918 3.83283 22.5088H0.0065918C0.101269 25.878 0.825987 29.1394 2.16126 32.2213C3.50632 35.3228 5.4064 38.0978 7.81249 40.481L8.07042 40.7324C8.1651 40.8238 8.25973 40.912 8.35441 41.0034L8.48178 41.1242L8.53398 41.1601C9.52646 41.9828 10.6953 42.4203 11.9163 42.4203C13.6009 42.4203 15.2136 41.5617 16.3432 40.0664C17.3651 38.7083 17.9298 36.9356 17.9298 35.0681C17.9298 34.6764 17.9037 34.2846 17.8548 33.9026L17.8351 33.759L17.796 33.6186C17.7666 33.5141 17.7438 33.4031 17.7307 33.2954L17.7209 33.2138C17.7144 33.1583 17.7144 33.1028 17.7144 33.044C17.7144 31.8785 18.6644 30.9285 19.8299 30.9285C20.9954 30.9285 21.9455 31.8785 21.9455 33.044C21.9455 33.106 21.9454 33.1681 21.9356 33.2301V33.2595C21.9193 33.3836 21.8965 33.5011 21.8638 33.6153L21.8246 33.7492L21.8084 33.8863C21.7561 34.2683 21.73 34.6666 21.73 35.0681C21.73 36.9356 22.2948 38.7083 23.3166 40.0664C24.4429 41.5617 26.059 42.4203 27.7436 42.4203C29.007 42.4203 30.2084 41.9567 31.2237 41.0785L31.2923 41.0197L31.3184 40.9936C31.4098 40.9055 31.5046 40.8206 31.596 40.7292L31.6482 40.6769C34.1489 38.2512 36.1175 35.4077 37.4985 32.2246C38.8338 29.1427 39.5586 25.8812 39.6533 22.5121H35.827V22.5088Z" fill="#F9A719"/>
<path d="M39.663 16.6127C39.663 16.8706 39.6597 17.1318 39.6532 17.3865H35.827C35.8368 17.1285 35.84 16.8706 35.84 16.6127C35.84 15.4897 35.7552 14.3633 35.5919 13.2599L35.5723 13.1195C35.4515 12.3359 35.2883 11.5589 35.0859 10.7983L34.8834 10.1747C33.4404 6.7141 30.0059 4.41248 26.2352 4.41248C25.0011 4.41248 23.803 4.64755 22.68 5.11114C22.6375 5.13072 22.5983 5.15031 22.5559 5.1699L22.5298 5.19601L22.1674 5.33313C22.1674 5.33313 22.1413 5.34292 22.1282 5.34945L21.8442 5.46045H21.8116C21.1847 5.6596 20.5317 5.75754 19.869 5.75754C19.0006 5.75754 18.1583 5.58778 17.365 5.25152L17.2377 5.19601C16.0494 4.67366 14.7826 4.40922 13.4767 4.40922C11.4232 4.40922 9.47094 5.06217 7.83858 6.29623C6.32702 7.43561 5.18112 9.03532 4.58694 10.8211L4.40736 11.4839C4.33228 11.8071 4.26368 12.1335 4.20491 12.46L4.18539 12.5579C3.9438 13.8867 3.82297 15.2513 3.82297 16.6127C3.82297 16.8706 3.82625 17.1318 3.83604 17.3865H0.00980371C0.00327428 17.1285 0 16.8706 0 16.6127C0 15.0816 0.133841 13.5439 0.395018 12.0454L0.424429 11.8724C0.519105 11.3435 0.633304 10.8113 0.763892 10.2857L0.989218 9.5185C1.83478 7.04058 3.43446 4.8271 5.53367 3.24045C7.83856 1.50036 10.5842 0.579712 13.4767 0.579712C15.3148 0.579712 17.0973 0.951884 18.7721 1.68644L18.8603 1.72563C19.1802 1.85948 19.5164 1.92477 19.869 1.92477C20.0779 1.92477 20.2837 1.89865 20.4828 1.85295L20.7179 1.62768H21.0867L21.1521 1.5983C22.7649 0.922505 24.4788 0.579712 26.2417 0.579712C28.9776 0.579712 31.6024 1.41221 33.8322 2.98254C35.8955 4.43533 37.4822 6.42355 38.4355 8.7415L38.7129 9.53809C38.997 10.5665 39.2222 11.6242 39.3822 12.6853L39.4018 12.8289C39.5814 14.0695 39.6695 15.3395 39.6695 16.6029L39.663 16.6127Z" fill="#F9A719"/>
<path d="M28.8797 19.3191C26.4017 21.3139 23.2546 22.5088 19.8266 22.5088C16.3987 22.5088 13.2515 21.3171 10.7736 19.3191L13.1601 16.9326C15.0144 18.3299 17.3258 19.1592 19.8266 19.1592C22.3274 19.1592 24.6388 18.3299 26.4931 16.9326L28.8797 19.3191Z" fill="#2F6363"/>
<path d="M53.1333 24.4709C51.1091 24.4709 49.418 23.8114 48.0599 22.4925C46.7018 21.1735 46.0227 19.5346 46.0227 17.5758C46.0227 15.617 46.7018 13.9781 48.0599 12.6591C49.418 11.3402 51.1091 10.6807 53.1333 10.6807C54.4685 10.6807 55.6797 10.9811 56.7636 11.5818C57.8475 12.1825 58.6963 13.0117 59.3101 14.0662C59.9238 15.1207 60.2307 16.2895 60.2307 17.5758C60.2307 18.8621 59.9238 20.0309 59.3101 21.0854C58.6963 22.1399 57.8475 22.9691 56.7636 23.5698C55.6797 24.1705 54.4685 24.4709 53.1333 24.4709ZM50.8251 19.8938C51.4389 20.514 52.2061 20.8275 53.1333 20.8275C54.0604 20.8275 54.8277 20.5173 55.4414 19.8938C56.0552 19.2735 56.362 18.4997 56.362 17.5758C56.362 16.6519 56.0552 15.8781 55.4414 15.2579C54.8277 14.6376 54.0604 14.3241 53.1333 14.3241C52.2061 14.3241 51.4389 14.6343 50.8251 15.2579C50.2113 15.8814 49.9044 16.6519 49.9044 17.5758C49.9044 18.4997 50.2113 19.2735 50.8251 19.8938Z" fill="#2F6363"/>
<path d="M70.8411 5.56169H74.6086V24.1542H70.8411V22.8418C69.7834 23.9257 68.4546 24.4676 66.8582 24.4676C65.0528 24.4676 63.5412 23.8082 62.3267 22.4892C61.1123 21.1703 60.505 19.5314 60.505 17.5726C60.505 15.6137 61.1123 13.9749 62.3267 12.6559C63.5412 11.337 65.0528 10.6775 66.8582 10.6775C68.4546 10.6775 69.7834 11.2194 70.8411 12.3033V5.55842V5.56169ZM67.6156 20.8275C68.5395 20.8275 69.31 20.5173 69.9237 19.8938C70.5375 19.2702 70.8444 18.4997 70.8444 17.5758C70.8444 16.6519 70.5375 15.8782 69.9237 15.2579C69.31 14.6376 68.5427 14.3242 67.6156 14.3242C66.6884 14.3242 65.9375 14.6343 65.327 15.2579C64.7165 15.8814 64.4129 16.6519 64.4129 17.5758C64.4129 18.4997 64.7165 19.2735 65.327 19.8938C65.9375 20.5141 66.6982 20.8275 67.6156 20.8275Z" fill="#2F6363"/>
<path d="M82.7116 24.4709C80.6874 24.4709 78.9964 23.8114 77.6383 22.4925C76.2801 21.1735 75.6011 19.5346 75.6011 17.5758C75.6011 15.617 76.2801 13.9781 77.6383 12.6591C78.9964 11.3402 80.6874 10.6807 82.7116 10.6807C84.0468 10.6807 85.2581 10.9811 86.342 11.5818C87.4258 12.1825 88.2747 13.0117 88.8884 14.0662C89.5022 15.1207 89.809 16.2895 89.809 17.5758C89.809 18.8621 89.5022 20.0309 88.8884 21.0854C88.2747 22.1399 87.4258 22.9691 86.342 23.5698C85.2581 24.1705 84.0468 24.4709 82.7116 24.4709ZM80.4035 19.8938C81.0172 20.514 81.7844 20.8275 82.7116 20.8275C83.6387 20.8275 84.406 20.5173 85.0197 19.8938C85.6335 19.2735 85.9404 18.4997 85.9404 17.5758C85.9404 16.6519 85.6335 15.8781 85.0197 15.2579C84.406 14.6376 83.6387 14.3241 82.7116 14.3241C81.7844 14.3241 81.0172 14.6343 80.4035 15.2579C79.7897 15.8814 79.4828 16.6519 79.4828 17.5758C79.4828 18.4997 79.7897 19.2735 80.4035 19.8938Z" fill="#2F6363"/>
<path d="M98.5781 10.6807C100.09 10.6807 101.311 11.1378 102.235 12.0486C103.158 12.9595 103.622 14.174 103.622 15.6855V24.1575H99.8546V16.9588C99.8546 16.1622 99.6228 15.5223 99.156 15.0424C98.6891 14.5625 98.0688 14.3241 97.2951 14.3241C96.5214 14.3241 95.8358 14.569 95.3363 15.062C94.8368 15.5549 94.5854 16.2013 94.5854 17.0077V24.1542H90.8179V10.9941H94.5854V12.3065C95.6431 11.2227 96.9751 10.6807 98.5814 10.6807H98.5781Z" fill="#2F6363"/>
<path d="M112.943 14.4254H109.564V19.2539C109.564 20.3051 110.116 20.8307 111.216 20.8307C111.761 20.8307 112.339 20.674 112.943 20.3639V23.9061C112.195 24.2848 111.353 24.4741 110.423 24.4741C108.875 24.4741 107.719 24.0595 106.949 23.2336C106.178 22.4076 105.796 21.2878 105.796 19.8742V14.4286H103.805V11.0007H105.796V7.73595H109.564V11.0007H112.943V14.4286V14.4254Z" fill="#2F6363"/>
<path d="M120.037 24.4709C118.013 24.4709 116.322 23.8114 114.964 22.4925C113.606 21.1735 112.927 19.5346 112.927 17.5758C112.927 15.617 113.606 13.9781 114.964 12.6591C116.322 11.3402 118.013 10.6807 120.037 10.6807C121.372 10.6807 122.584 10.9811 123.667 11.5818C124.751 12.1825 125.6 13.0117 126.214 14.0662C126.828 15.1207 127.135 16.2895 127.135 17.5758C127.135 18.8621 126.828 20.0309 126.214 21.0854C125.6 22.1399 124.751 22.9691 123.667 23.5698C122.584 24.1705 121.372 24.4709 120.037 24.4709ZM117.729 19.8938C118.343 20.514 119.11 20.8275 120.037 20.8275C120.964 20.8275 121.731 20.5173 122.345 19.8938C122.959 19.2735 123.266 18.4997 123.266 17.5758C123.266 16.6519 122.959 15.8781 122.345 15.2579C121.731 14.6376 120.964 14.3241 120.037 14.3241C119.11 14.3241 118.343 14.6343 117.729 15.2579C117.115 15.8814 116.808 16.6519 116.808 17.5758C116.808 18.4997 117.115 19.2735 117.729 19.8938Z" fill="#2F6363"/>
<path d="M138.923 24.4709C136.899 24.4709 135.208 23.8114 133.85 22.4925C132.492 21.1735 131.813 19.5346 131.813 17.5758C131.813 15.617 132.492 13.9781 133.85 12.6591C135.208 11.3402 136.899 10.6807 138.923 10.6807C140.233 10.6807 141.424 10.9745 142.492 11.5557C143.559 12.1401 144.398 12.9399 145.012 13.9552L141.734 15.9467C141.457 15.4505 141.072 15.0554 140.575 14.7616C140.079 14.4678 139.527 14.3209 138.923 14.3209C138 14.3209 137.229 14.631 136.615 15.2546C136.001 15.8781 135.695 16.6486 135.695 17.5725C135.695 18.4965 136.001 19.2702 136.615 19.8905C137.229 20.5108 137.996 20.8242 138.923 20.8242C139.527 20.8242 140.079 20.6773 140.575 20.3835C141.072 20.0896 141.457 19.6946 141.734 19.1984L145.012 21.1768C144.398 22.2019 143.559 23.005 142.492 23.5894C141.424 24.1738 140.236 24.4643 138.923 24.4643V24.4709Z" fill="#2F6363"/>
<path d="M145.652 24.1542V5.56167H149.419V24.1542H145.652Z" fill="#2F6363"/>
<path d="M153.073 9.30631C152.416 9.30631 151.868 9.0843 151.421 8.64356C150.977 8.20282 150.751 7.65109 150.751 6.98509C150.751 6.31909 150.973 5.78368 151.421 5.34621C151.865 4.90873 152.416 4.68999 153.073 4.68999C153.729 4.68999 154.307 4.90873 154.754 5.34621C155.205 5.78368 155.43 6.32888 155.43 6.98509C155.43 7.6413 155.205 8.20282 154.754 8.64356C154.303 9.0843 153.742 9.30631 153.073 9.30631ZM151.195 24.1542V10.9942H154.963V24.1542H151.195Z" fill="#2F6363"/>
<path d="M164.502 10.6807C166.014 10.6807 167.235 11.1378 168.159 12.0486C169.083 12.9595 169.546 14.174 169.546 15.6855V24.1575H165.779V16.9588C165.779 16.1622 165.547 15.5223 165.08 15.0424C164.613 14.5625 163.993 14.3241 163.219 14.3241C162.446 14.3241 161.76 14.569 161.261 15.062C160.761 15.5549 160.51 16.2013 160.51 17.0077V24.1542H156.742V10.9941H160.51V12.3065C161.567 11.2227 162.899 10.6807 164.506 10.6807H164.502Z" fill="#2F6363"/>
<path d="M172.958 9.30631C172.302 9.30631 171.753 9.0843 171.306 8.64356C170.862 8.20282 170.637 7.65109 170.637 6.98509C170.637 6.31909 170.859 5.78368 171.306 5.34621C171.75 4.90873 172.302 4.68999 172.958 4.68999C173.614 4.68999 174.192 4.90873 174.639 5.34621C175.09 5.78368 175.315 6.32888 175.315 6.98509C175.315 7.6413 175.09 8.20282 174.639 8.64356C174.189 9.0843 173.627 9.30631 172.958 9.30631ZM171.081 24.1542V10.9942H174.848V24.1542H171.081Z" fill="#2F6363"/>
<path d="M182.951 24.4709C180.927 24.4709 179.236 23.8114 177.878 22.4925C176.52 21.1735 175.841 19.5346 175.841 17.5758C175.841 15.617 176.52 13.9781 177.878 12.6591C179.236 11.3402 180.927 10.6807 182.951 10.6807C184.261 10.6807 185.452 10.9745 186.52 11.5557C187.587 12.1401 188.426 12.9399 189.04 13.9552L185.762 15.9467C185.485 15.4505 185.1 15.0554 184.603 14.7616C184.107 14.4678 183.555 14.3209 182.951 14.3209C182.027 14.3209 181.257 14.631 180.643 15.2546C180.03 15.8781 179.723 16.6486 179.723 17.5725C179.723 18.4965 180.03 19.2702 180.643 19.8905C181.257 20.5108 182.024 20.8242 182.951 20.8242C183.555 20.8242 184.107 20.6773 184.603 20.3835C185.1 20.0896 185.485 19.6946 185.762 19.1984L189.04 21.1768C188.426 22.2019 187.587 23.005 186.52 23.5894C185.452 24.1738 184.264 24.4643 182.951 24.4643V24.4709Z" fill="#2F6363"/>
<path d="M65.4282 38.3132C64.7818 38.3132 64.1941 38.1663 63.662 37.8693C63.1331 37.5722 62.7152 37.1641 62.4148 36.645C62.1145 36.1259 61.9644 35.548 61.9644 34.9147C61.9644 34.2813 62.1145 33.7035 62.4148 33.1844C62.7152 32.6653 63.1298 32.2572 63.662 31.9601C64.1941 31.663 64.7818 31.5161 65.4282 31.5161C66.0746 31.5161 66.6459 31.663 67.1683 31.9536C67.6906 32.2442 68.0987 32.6424 68.3926 33.1452L67.4425 33.7165C67.2433 33.3639 66.9659 33.0864 66.61 32.8808C66.2542 32.6751 65.8591 32.5739 65.4282 32.5739C64.7622 32.5739 64.204 32.7991 63.7632 33.2464C63.3225 33.6937 63.0972 34.252 63.0972 34.918C63.0972 35.584 63.3192 36.1422 63.7632 36.5895C64.2072 37.0368 64.7622 37.262 65.4282 37.262C65.8591 37.262 66.2542 37.1575 66.61 36.9519C66.9659 36.7462 67.2433 36.4654 67.4425 36.1128L68.3926 36.6842C68.0987 37.1902 67.6906 37.5885 67.165 37.8823C66.6394 38.1729 66.0615 38.3198 65.4282 38.3198V38.3132Z" fill="#A3A3A3"/>
<path d="M72.098 38.3132C71.4516 38.3132 70.8639 38.1663 70.3318 37.8693C69.8029 37.5722 69.385 37.1641 69.0846 36.645C68.7843 36.1259 68.6342 35.548 68.6342 34.9147C68.6342 34.2813 68.7843 33.7035 69.0846 33.1844C69.385 32.6653 69.7996 32.2572 70.3318 31.9601C70.8639 31.663 71.4516 31.5161 72.098 31.5161C73.0774 31.5161 73.8968 31.8426 74.5563 32.4923C75.219 33.1419 75.5488 33.9516 75.5488 34.918C75.5488 35.8843 75.219 36.6907 74.5563 37.3436C73.8968 37.9933 73.0741 38.3198 72.098 38.3198V38.3132ZM72.098 37.2555C72.7607 37.2555 73.3125 37.0302 73.7565 36.583C74.1972 36.1357 74.4192 35.5774 74.4192 34.9114C74.4192 34.2454 74.1972 33.6872 73.7565 33.2399C73.3157 32.7926 72.764 32.5674 72.098 32.5674C71.432 32.5674 70.8738 32.7926 70.433 33.2399C69.9923 33.6872 69.767 34.2454 69.767 34.9114C69.767 35.5774 69.989 36.1357 70.433 36.583C70.877 37.0302 71.432 37.2555 72.098 37.2555Z" fill="#A3A3A3"/>
<path d="M79.8157 31.5096C80.6058 31.5096 81.2456 31.7512 81.7288 32.2311C82.212 32.711 82.4537 33.3509 82.4537 34.1475V38.1566H81.3599V34.4903C81.3599 33.9092 81.1869 33.4456 80.8441 33.093C80.5013 32.7437 80.041 32.5674 79.4631 32.5674C78.8853 32.5674 78.3825 32.7469 78.0201 33.1028C77.6578 33.4586 77.4782 33.9287 77.4782 34.5131V38.1566H76.3845V31.6663H77.4782V32.6555C78.0039 31.8916 78.7841 31.5128 79.8157 31.5128V31.5096Z" fill="#A3A3A3"/>
<path d="M85.7411 38.3133C84.6932 38.3133 83.815 37.9737 83.1066 37.2947L83.717 36.5046C84.2459 37.0466 84.9151 37.3175 85.7248 37.3175C86.1655 37.3175 86.5247 37.2359 86.8054 37.0727C87.0862 36.9094 87.2266 36.6842 87.2266 36.3969C87.2266 36.2761 87.1972 36.1683 87.1352 36.0704C87.0764 35.9725 87.0046 35.8941 86.923 35.8321C86.8414 35.77 86.7206 35.708 86.5638 35.6493C86.4039 35.5905 86.2668 35.5448 86.146 35.5121C86.0284 35.4795 85.8619 35.437 85.6464 35.3848C85.4473 35.3358 85.2906 35.2934 85.1731 35.264C85.0555 35.2346 84.9054 35.1857 84.7226 35.1171C84.5365 35.0518 84.3895 34.9865 84.2753 34.9245C84.161 34.8624 84.037 34.7808 83.9031 34.6796C83.7693 34.5784 83.6616 34.4707 83.5865 34.3564C83.5081 34.2422 83.4461 34.105 83.3938 33.9451C83.3416 33.7851 83.3155 33.6121 83.3155 33.4194C83.3155 33.0146 83.433 32.662 83.6648 32.3682C83.8966 32.0744 84.197 31.8589 84.5659 31.7185C84.9348 31.5781 85.3462 31.5096 85.8032 31.5096C86.7402 31.5096 87.5335 31.8067 88.1831 32.3976L87.5694 33.2007C87.0928 32.7371 86.5083 32.5053 85.8162 32.5053C85.4212 32.5053 85.0947 32.5804 84.8335 32.7306C84.5724 32.8808 84.4418 33.0897 84.4418 33.3574C84.4418 33.4815 84.4744 33.5925 84.5365 33.6904C84.5985 33.7884 84.6703 33.8667 84.7519 33.9287C84.8335 33.9908 84.9544 34.0528 85.1209 34.1116C85.2874 34.1703 85.4278 34.216 85.542 34.2487C85.6563 34.2813 85.8261 34.3238 86.0481 34.376C86.244 34.4217 86.4006 34.4609 86.5182 34.4903C86.6357 34.5229 86.7858 34.5686 86.9687 34.6307C87.1515 34.6927 87.2984 34.7547 87.4127 34.8135C87.527 34.8723 87.651 34.9539 87.7816 35.0518C87.9154 35.1497 88.0166 35.2575 88.0917 35.3685C88.1668 35.4795 88.2289 35.6166 88.2811 35.7766C88.3333 35.9365 88.3594 36.1096 88.3594 36.2957C88.3594 36.9225 88.1113 37.4122 87.6183 37.7713C87.1254 38.1304 86.4985 38.31 85.7411 38.31V38.3133Z" fill="#A3A3A3"/>
<path d="M94.1086 37.5624C93.5732 38.0619 92.8582 38.31 91.9735 38.31C91.0888 38.31 90.3738 38.0619 89.8384 37.5624C89.3029 37.0629 89.032 36.4034 89.032 35.5807V31.663H90.1257V35.4305C90.1257 35.979 90.2954 36.4165 90.6317 36.7527C90.9679 37.0857 91.4152 37.2522 91.9702 37.2522C92.5252 37.2522 92.9725 37.0857 93.3088 36.7527C93.6451 36.4197 93.8148 35.979 93.8148 35.4305V31.663H94.9085V35.5807C94.9085 36.4001 94.6408 37.0629 94.1021 37.5624H94.1086Z" fill="#A3A3A3"/>
<path d="M96.0741 38.1566V28.986H97.1677V38.1566H96.0741Z" fill="#A3A3A3"/>
<path d="M102.159 32.6555H100.207V36.2499C100.207 36.9225 100.556 37.2555 101.252 37.2555C101.555 37.2555 101.856 37.1739 102.159 37.0139V38.0455C101.833 38.2251 101.451 38.3132 101.02 38.3132C100.393 38.3132 99.9198 38.15 99.5966 37.8235C99.2734 37.4971 99.1101 37.0302 99.1101 36.4262V32.6587H97.9414V31.6695H99.1101V29.9229H100.204V31.6695H102.156V32.6587L102.159 32.6555Z" fill="#A3A3A3"/>
<path d="M105.744 38.3132C105.098 38.3132 104.51 38.1663 103.978 37.8692C103.449 37.5722 103.031 37.1641 102.731 36.645C102.43 36.1259 102.28 35.548 102.28 34.9147C102.28 34.2813 102.43 33.7035 102.731 33.1844C103.031 32.6653 103.446 32.2572 103.978 31.9601C104.51 31.663 105.098 31.5161 105.744 31.5161C106.724 31.5161 107.543 31.8426 108.202 32.4922C108.865 33.1419 109.195 33.9516 109.195 34.9179C109.195 35.8843 108.865 36.6907 108.202 37.3436C107.543 37.9933 106.72 38.3198 105.744 38.3198V38.3132ZM105.744 37.2555C106.407 37.2555 106.959 37.0302 107.403 36.5829C107.843 36.1357 108.065 35.5774 108.065 34.9114C108.065 34.2454 107.843 33.6871 107.403 33.2399C106.962 32.7926 106.41 32.5674 105.744 32.5674C105.078 32.5674 104.52 32.7926 104.079 33.2399C103.638 33.6871 103.413 34.2454 103.413 34.9114C103.413 35.5774 103.635 36.1357 104.079 36.5829C104.523 37.0302 105.078 37.2555 105.744 37.2555ZM105.065 30.8077L106.39 29.1655H107.794L106.24 30.8077H105.065Z" fill="#A3A3A3"/>
<path d="M113.341 31.5619H113.56V32.6947H113.341C112.659 32.6947 112.117 32.8939 111.722 33.2954C111.327 33.697 111.128 34.2357 111.128 34.9147V38.1598H110.034V31.6696H111.128V32.7894C111.637 31.9732 112.375 31.5651 113.341 31.5651V31.5619Z" fill="#A3A3A3"/>
<path d="M114.689 30.3669C114.477 30.3669 114.301 30.2984 114.16 30.158C114.02 30.0176 113.948 29.8446 113.948 29.6389C113.948 29.4332 114.02 29.2537 114.16 29.1166C114.301 28.9794 114.477 28.9109 114.689 28.9109C114.902 28.9109 115.068 28.9794 115.205 29.1166C115.342 29.2537 115.411 29.4267 115.411 29.6389C115.411 29.8511 115.342 30.0209 115.202 30.158C115.061 30.2984 114.892 30.3669 114.689 30.3669ZM114.141 38.1566V31.6663H115.235V38.1566H114.141Z" fill="#A3A3A3"/>
<path d="M119.524 38.3132C118.878 38.3132 118.29 38.1663 117.758 37.8693C117.229 37.5722 116.811 37.1641 116.511 36.645C116.211 36.1259 116.061 35.548 116.061 34.9147C116.061 34.2813 116.211 33.7035 116.511 33.1844C116.811 32.6653 117.226 32.2572 117.758 31.9601C118.29 31.663 118.878 31.5161 119.524 31.5161C120.504 31.5161 121.323 31.8426 121.983 32.4923C122.645 33.1419 122.975 33.9516 122.975 34.918C122.975 35.8843 122.645 36.6907 121.983 37.3436C121.323 37.9933 120.501 38.3198 119.524 38.3198V38.3132ZM119.524 37.2555C120.187 37.2555 120.739 37.0302 121.183 36.583C121.624 36.1357 121.846 35.5774 121.846 34.9114C121.846 34.2454 121.624 33.6872 121.183 33.2399C120.742 32.7926 120.19 32.5674 119.524 32.5674C118.858 32.5674 118.3 32.7926 117.859 33.2399C117.419 33.6872 117.193 34.2454 117.193 34.9114C117.193 35.5774 117.415 36.1357 117.859 36.583C118.303 37.0302 118.858 37.2555 119.524 37.2555Z" fill="#A3A3A3"/>
<path d="M131.725 28.986H132.818V38.1566H131.725V36.9878C131.447 37.4024 131.088 37.7256 130.654 37.9607C130.216 38.1957 129.733 38.3133 129.201 38.3133C128.591 38.3133 128.039 38.1663 127.543 37.8693C127.046 37.5722 126.658 37.1641 126.377 36.645C126.096 36.1259 125.956 35.5481 125.956 34.9147C125.956 34.2813 126.096 33.7035 126.377 33.1844C126.658 32.6653 127.046 32.2572 127.543 31.9601C128.039 31.663 128.594 31.5161 129.201 31.5161C129.73 31.5161 130.216 31.6337 130.654 31.8687C131.091 32.1038 131.447 32.427 131.725 32.8416V28.9925V28.986ZM129.407 37.2555C130.07 37.2555 130.621 37.0302 131.065 36.583C131.506 36.1357 131.728 35.5774 131.728 34.9114C131.728 34.2454 131.506 33.6872 131.065 33.2399C130.625 32.7926 130.073 32.5674 129.407 32.5674C128.741 32.5674 128.183 32.7926 127.742 33.2399C127.301 33.6872 127.076 34.2454 127.076 34.9114C127.076 35.5774 127.298 36.1357 127.742 36.583C128.186 37.0302 128.741 37.2555 129.407 37.2555Z" fill="#A3A3A3"/>
<path d="M140.458 34.9114C140.458 34.9735 140.448 35.1367 140.428 35.3946H134.839C134.95 35.9659 135.224 36.4262 135.655 36.7788C136.09 37.1282 136.618 37.3045 137.245 37.3045C137.709 37.3045 138.137 37.2065 138.525 37.0106C138.914 36.8147 139.22 36.5601 139.439 36.2499L140.19 36.8964C139.864 37.3371 139.439 37.6832 138.92 37.9346C138.401 38.1859 137.83 38.3132 137.206 38.3132C136.191 38.3132 135.345 37.9868 134.669 37.3306C133.994 36.6744 133.657 35.8615 133.657 34.8886C133.657 34.2585 133.804 33.6839 134.101 33.1681C134.398 32.6522 134.807 32.2474 135.329 31.9536C135.851 31.6598 136.432 31.5128 137.069 31.5128C137.706 31.5128 138.28 31.6598 138.796 31.9536C139.312 32.2474 139.72 32.6555 140.014 33.1746C140.308 33.6937 140.455 34.2748 140.455 34.9114H140.458ZM137.056 32.5184C136.491 32.5184 136.005 32.6947 135.597 33.044C135.185 33.3933 134.931 33.8471 134.826 34.4021H139.296C139.191 33.8373 138.936 33.3835 138.525 33.0375C138.114 32.6914 137.627 32.5184 137.059 32.5184H137.056Z" fill="#A3A3A3"/>
<path d="M144.689 31.5096C145.479 31.5096 146.119 31.7512 146.602 32.2311C147.085 32.711 147.327 33.3509 147.327 34.1475V38.1566H146.233V34.4903C146.233 33.9092 146.06 33.4456 145.717 33.093C145.374 32.7437 144.914 32.5674 144.336 32.5674C143.758 32.5674 143.256 32.7469 142.893 33.1028C142.531 33.4586 142.351 33.9287 142.351 34.5131V38.1566H141.258V31.6663H142.351V32.6555C142.877 31.8916 143.657 31.5128 144.689 31.5128V31.5096Z" fill="#A3A3A3"/>
<path d="M151.888 32.6555H149.935V36.2499C149.935 36.9225 150.285 37.2555 150.98 37.2555C151.284 37.2555 151.584 37.1739 151.888 37.0139V38.0455C151.561 38.2251 151.179 38.3132 150.748 38.3132C150.121 38.3132 149.648 38.15 149.325 37.8235C149.002 37.4971 148.838 37.0302 148.838 36.4262V32.6587H147.67V31.6695H148.838V29.9229H149.932V31.6695H151.884V32.6587L151.888 32.6555Z" fill="#A3A3A3"/>
<path d="M157.803 31.6663H158.897V38.1565H157.803V36.9878C157.526 37.4024 157.167 37.7256 156.732 37.9606C156.295 38.1957 155.812 38.3132 155.28 38.3132C154.669 38.3132 154.117 38.1663 153.621 37.8692C153.125 37.5722 152.736 37.1641 152.456 36.645C152.175 36.1259 152.034 35.548 152.034 34.9147C152.034 34.2813 152.175 33.7035 152.456 33.1844C152.736 32.6653 153.125 32.2572 153.621 31.9601C154.117 31.663 154.672 31.5161 155.28 31.5161C155.808 31.5161 156.295 31.6336 156.732 31.8687C157.17 32.1038 157.526 32.427 157.803 32.8416V31.6728V31.6663ZM155.485 37.2555C156.148 37.2555 156.7 37.0302 157.144 36.5829C157.584 36.1357 157.806 35.5774 157.806 34.9114C157.806 34.2454 157.584 33.6871 157.144 33.2399C156.703 32.7926 156.151 32.5674 155.485 32.5674C154.819 32.5674 154.261 32.7926 153.82 33.2399C153.379 33.6871 153.154 34.2454 153.154 34.9114C153.154 35.5774 153.376 36.1357 153.82 36.5829C154.264 37.0302 154.819 37.2555 155.485 37.2555ZM157.754 29.1688L156.2 30.8109H155.025L156.35 29.1688H157.754Z" fill="#A3A3A3"/>
<path d="M163.464 31.5619H163.683V32.6947H163.464C162.782 32.6947 162.24 32.8939 161.845 33.2954C161.45 33.697 161.251 34.2357 161.251 34.9147V38.1598H160.157V31.6696H161.251V32.7894C161.76 31.9732 162.498 31.5651 163.464 31.5651V31.5619Z" fill="#A3A3A3"/>
<path d="M164.813 30.3669C164.6 30.3669 164.424 30.2984 164.284 30.158C164.143 30.0176 164.072 29.8446 164.072 29.6389C164.072 29.4332 164.143 29.2537 164.284 29.1166C164.424 28.9794 164.6 28.9109 164.813 28.9109C165.025 28.9109 165.191 28.9794 165.328 29.1166C165.466 29.2537 165.534 29.4267 165.534 29.6389C165.534 29.8511 165.466 30.0209 165.325 30.158C165.185 30.2984 165.015 30.3669 164.813 30.3669ZM164.264 38.1566V31.6663H165.358V38.1566H164.264Z" fill="#A3A3A3"/>
<path d="M169.648 38.3132C169.001 38.3132 168.413 38.1663 167.881 37.8693C167.352 37.5722 166.935 37.1641 166.634 36.645C166.334 36.1259 166.184 35.548 166.184 34.9147C166.184 34.2813 166.334 33.7035 166.634 33.1844C166.935 32.6653 167.349 32.2572 167.881 31.9601C168.413 31.663 169.001 31.5161 169.648 31.5161C170.627 31.5161 171.446 31.8426 172.106 32.4923C172.769 33.1419 173.098 33.9516 173.098 34.918C173.098 35.8843 172.769 36.6907 172.106 37.3436C171.446 37.9933 170.624 38.3198 169.648 38.3198V38.3132ZM169.648 37.2555C170.31 37.2555 170.862 37.0302 171.306 36.583C171.747 36.1357 171.969 35.5774 171.969 34.9114C171.969 34.2454 171.747 33.6872 171.306 33.2399C170.865 32.7926 170.314 32.5674 169.648 32.5674C168.982 32.5674 168.423 32.7926 167.983 33.2399C167.542 33.6872 167.317 34.2454 167.317 34.9114C167.317 35.5774 167.539 36.1357 167.983 36.583C168.427 37.0302 168.982 37.2555 169.648 37.2555Z" fill="#A3A3A3"/>
</svg>
