<svg width="31" height="33" viewBox="0 0 31 33" fill="none" xmlns="http://www.w3.org/2000/svg">
<path d="M27.5373 16.8551C27.3867 21.3769 25.5248 25.5749 22.2501 28.7367L22.1347 28.8471C22.1071 28.8722 22.082 28.8973 22.0544 28.9224C21.8185 29.1206 21.5726 29.221 21.3217 29.221C20.5262 29.221 19.6405 28.1068 19.6405 26.5084C19.6405 26.3629 19.648 26.2173 19.663 26.0768C19.7232 25.8435 19.7634 25.6051 19.786 25.3617L19.7935 25.2939V25.2864C19.801 25.176 19.8061 25.0631 19.8061 24.9501C19.8061 22.4333 17.7585 20.3857 15.2391 20.3857C12.7198 20.3857 10.6747 22.4333 10.6747 24.9501C10.6747 25.0605 10.6796 25.1709 10.6872 25.2814V25.2864C10.6872 25.3039 10.6872 25.3215 10.6922 25.3391V25.3441C10.7148 25.5925 10.7549 25.8409 10.8177 26.0843C10.8327 26.2223 10.8403 26.3654 10.8403 26.5084C10.8403 28.1068 9.95449 29.221 9.15904 29.221C8.91062 29.221 8.66467 29.1231 8.4313 28.9274L8.36606 28.8647L8.35607 28.8596C8.35607 28.8596 8.35105 28.8546 8.35105 28.8521L8.23312 28.7367C4.96096 25.5775 3.09652 21.3769 2.94596 16.8551H0.00505066C0.0778209 19.4447 0.634853 21.9515 1.66116 24.3203C2.695 26.7041 4.15544 28.8371 6.00481 30.6689L6.20305 30.8621C6.27582 30.9323 6.34856 31.0001 6.42133 31.0704L6.51923 31.1632L6.55936 31.1908C7.32219 31.8232 8.22055 32.1594 9.15904 32.1594C10.4538 32.1594 11.6935 31.4994 12.5617 30.3502C13.3471 29.3063 13.7812 27.9437 13.7812 26.5084C13.7812 26.2073 13.7611 25.9062 13.7235 25.6126L13.7084 25.5022L13.6783 25.3943C13.6557 25.314 13.6382 25.2287 13.6281 25.1459L13.6206 25.0831C13.6156 25.0405 13.6156 24.9978 13.6156 24.9526C13.6156 24.0568 14.3458 23.3266 15.2416 23.3266C16.1375 23.3266 16.8677 24.0568 16.8677 24.9526C16.8677 25.0003 16.8676 25.048 16.8601 25.0957V25.1183C16.8476 25.2136 16.83 25.3039 16.8049 25.3918L16.7748 25.4947L16.7623 25.6C16.7221 25.8936 16.7021 26.1998 16.7021 26.5084C16.7021 27.9437 17.1361 29.3063 17.9216 30.3502C18.7873 31.4994 20.0294 32.1594 21.3242 32.1594C22.2953 32.1594 23.2187 31.8031 23.9991 31.1281L24.0518 31.0829L24.0719 31.0628C24.1422 30.9951 24.215 30.9298 24.2852 30.8596L24.3253 30.8194C26.2475 28.955 27.7606 26.7694 28.822 24.3228C29.8483 21.954 30.4054 19.4472 30.4782 16.8576H27.5373V16.8551Z" fill="#F9A719"/>
<path d="M30.4857 12.3233C30.4857 12.5215 30.4832 12.7222 30.4782 12.918H27.5373C27.5448 12.7197 27.5473 12.5215 27.5473 12.3233C27.5473 11.4601 27.4821 10.5943 27.3566 9.74619L27.3415 9.63829C27.2487 9.03605 27.1232 8.43883 26.9676 7.85416L26.812 7.37488C25.7029 4.715 23.0631 2.94594 20.1648 2.94594C19.2163 2.94594 18.2954 3.12661 17.4322 3.48293C17.3996 3.49799 17.3695 3.51304 17.3368 3.5281L17.3168 3.54817L17.0382 3.65357C17.0382 3.65357 17.0182 3.66109 17.0082 3.66611L16.7898 3.75143H16.7648C16.283 3.90449 15.7811 3.97977 15.2717 3.97977C14.6042 3.97977 13.9568 3.84929 13.347 3.59083L13.2492 3.54817C12.3358 3.14668 11.3622 2.94343 10.3585 2.94343C8.78011 2.94343 7.27953 3.4453 6.02488 4.39382C4.86306 5.26957 3.9823 6.49913 3.5256 7.87173L3.38758 8.38112C3.32987 8.62954 3.27714 8.88047 3.23197 9.1314L3.21696 9.20668C3.03127 10.228 2.9384 11.2769 2.9384 12.3233C2.9384 12.5215 2.94092 12.7222 2.94845 12.918H0.00753531C0.00251667 12.7197 0 12.5215 0 12.3233C0 11.1464 0.102872 9.9645 0.303618 8.81272L0.326224 8.67973C0.398994 8.27322 0.486769 7.86421 0.587141 7.46021L0.760331 6.87051C1.41024 4.96594 2.63979 3.26462 4.25328 2.04509C6.02486 0.707626 8.13522 0 10.3585 0C11.7712 0 13.1413 0.286058 14.4286 0.850655L14.4963 0.880773C14.7422 0.983655 15.0007 1.03384 15.2717 1.03384C15.4323 1.03384 15.5904 1.01376 15.7435 0.978632L15.9241 0.805489H16.2076L16.2579 0.782906C17.4975 0.263477 18.8148 0 20.1699 0C22.2727 0 24.2902 0.639872 26.004 1.84685C27.5899 2.9635 28.8095 4.49168 29.5422 6.27329L29.7555 6.88557C29.9738 7.676 30.1469 8.48902 30.2699 9.30455L30.2849 9.41496C30.423 10.3685 30.4907 11.3446 30.4907 12.3157L30.4857 12.3233Z" fill="#F9A719"/>
<path d="M22.1974 14.4035C20.2928 15.9367 17.8739 16.8551 15.2391 16.8551C12.6043 16.8551 10.1853 15.9392 8.28075 14.4035L10.1151 12.5692C11.5404 13.6431 13.3169 14.2805 15.2391 14.2805C17.1612 14.2805 18.9378 13.6431 20.3631 12.5692L22.1974 14.4035Z" fill="#2F6363"/>
</svg>